<svg xmlns="http://www.w3.org/2000/svg" xmlns:xlink="http://www.w3.org/1999/xlink" width="500" zoomAndPan="magnify" viewBox="0 0 375 374.999991" height="500" preserveAspectRatio="xMidYMid meet" version="1.0"><defs><g/><clipPath id="915e79e896"><path d="M 74 145 L 243 145 L 243 270 L 74 270 Z M 74 145 " clip-rule="nonzero"/></clipPath><clipPath id="d79cb1a481"><path d="M 99 136.03125 L 245.476562 164.664062 L 219.722656 296.421875 L 73.242188 267.789062 Z M 99 136.03125 " clip-rule="nonzero"/></clipPath><clipPath id="341f4885ab"><path d="M 99 136.03125 L 245.476562 164.664062 L 219.722656 296.421875 L 73.242188 267.789062 Z M 99 136.03125 " clip-rule="nonzero"/></clipPath></defs><g fill="#bacf00" fill-opacity="1"><g transform="translate(73.432552, 127.193514)"><g><path d="M 6.515625 -89.5 L 34.28125 -89.5 C 42.664062 -89.5 49.351562 -87.707031 54.34375 -84.125 C 59.34375 -80.550781 61.84375 -74.75 61.84375 -66.71875 C 61.84375 -57.75 58.113281 -51.347656 50.65625 -47.515625 C 63.382812 -45.273438 69.75 -37.753906 69.75 -24.953125 C 69.75 -17.429688 67.144531 -11.390625 61.9375 -6.828125 C 56.738281 -2.273438 49.582031 0 40.46875 0 L 6.515625 0 Z M 26.90625 -54.453125 L 28.53125 -54.453125 C 33.082031 -54.453125 36.476562 -55.25 38.71875 -56.84375 C 40.96875 -58.4375 42.09375 -61.039062 42.09375 -64.65625 C 42.09375 -70.726562 37.570312 -73.765625 28.53125 -73.765625 L 26.90625 -73.765625 Z M 26.90625 -15.734375 L 33.296875 -15.734375 C 43.285156 -15.734375 48.28125 -19.054688 48.28125 -25.703125 C 48.28125 -29.679688 47.03125 -32.539062 44.53125 -34.28125 C 42.039062 -36.019531 38.296875 -36.890625 33.296875 -36.890625 L 26.90625 -36.890625 Z M 26.90625 -15.734375 "/></g></g></g><g fill="#bacf00" fill-opacity="1"><g transform="translate(140.248374, 127.193514)"><g><path d="M 51.96875 -89.5 L 88.09375 0 L 66.171875 0 L 59.5625 -17.90625 L 25.5 -17.90625 L 18.875 0 L -3.03125 0 L 33.09375 -89.5 Z M 52.609375 -35.796875 L 42.640625 -61.84375 L 42.421875 -61.84375 L 32.4375 -35.796875 Z M 52.609375 -35.796875 "/></g></g></g><g fill="#bacf00" fill-opacity="1"><g transform="translate(222.665673, 123.875693)"><g><path d="M 52.4375 -17.859375 C 55.445312 -17.859375 58.367188 -18.3125 61.203125 -19.21875 C 64.046875 -20.132812 66.132812 -21.015625 67.46875 -21.859375 L 69.46875 -23.21875 L 77.875 -6.40625 C 77.59375 -6.195312 77.207031 -5.914062 76.71875 -5.5625 C 76.226562 -5.21875 75.085938 -4.570312 73.296875 -3.625 C 71.515625 -2.675781 69.609375 -1.851562 67.578125 -1.15625 C 65.546875 -0.457031 62.882812 0.171875 59.59375 0.734375 C 56.300781 1.296875 52.898438 1.578125 49.390625 1.578125 C 41.335938 1.578125 33.703125 -0.398438 26.484375 -4.359375 C 19.265625 -8.316406 13.445312 -13.765625 9.03125 -20.703125 C 4.625 -27.640625 2.421875 -35.132812 2.421875 -43.1875 C 2.421875 -49.289062 3.710938 -55.144531 6.296875 -60.75 C 8.890625 -66.351562 12.34375 -71.148438 16.65625 -75.140625 C 20.96875 -79.128906 25.992188 -82.316406 31.734375 -84.703125 C 37.484375 -87.085938 43.367188 -88.28125 49.390625 -88.28125 C 54.992188 -88.28125 60.160156 -87.613281 64.890625 -86.28125 C 69.617188 -84.945312 72.96875 -83.613281 74.9375 -82.28125 L 77.875 -80.296875 L 69.46875 -63.484375 C 68.976562 -63.898438 68.238281 -64.40625 67.25 -65 C 66.269531 -65.59375 64.304688 -66.378906 61.359375 -67.359375 C 58.421875 -68.347656 55.445312 -68.84375 52.4375 -68.84375 C 47.675781 -68.84375 43.398438 -68.070312 39.609375 -66.53125 C 35.828125 -64.988281 32.832031 -62.953125 30.625 -60.421875 C 28.425781 -57.898438 26.75 -55.1875 25.59375 -52.28125 C 24.4375 -49.375 23.859375 -46.414062 23.859375 -43.40625 C 23.859375 -36.820312 26.328125 -30.914062 31.265625 -25.6875 C 36.203125 -20.46875 43.257812 -17.859375 52.4375 -17.859375 Z M 52.4375 -17.859375 "/></g></g></g><g fill="#bacf00" fill-opacity="1"><g transform="translate(246.049599, 215.910824)"><g><path d="M 26.0625 -86.703125 L 26.0625 0 L 6.3125 0 L 6.3125 -86.703125 Z M 26.0625 -86.703125 "/></g></g></g><g fill="#bacf00" fill-opacity="1"><g transform="translate(224.616418, 307.945954)"><g><path d="M 6.3125 -86.703125 L 37.3125 -86.703125 C 45.644531 -86.703125 52.4375 -84.476562 57.6875 -80.03125 C 62.945312 -75.582031 65.578125 -69.222656 65.578125 -60.953125 C 65.578125 -54.578125 63.984375 -49.234375 60.796875 -44.921875 C 57.609375 -40.617188 53.28125 -37.59375 47.8125 -35.84375 L 77.671875 0 L 52.546875 0 L 26.0625 -34.265625 L 26.0625 0 L 6.3125 0 Z M 26.0625 -48.234375 L 28.375 -48.234375 C 30.195312 -48.234375 31.738281 -48.269531 33 -48.34375 C 34.257812 -48.414062 35.691406 -48.660156 37.296875 -49.078125 C 38.910156 -49.492188 40.207031 -50.085938 41.1875 -50.859375 C 42.175781 -51.628906 43.019531 -52.75 43.71875 -54.21875 C 44.414062 -55.695312 44.765625 -57.484375 44.765625 -59.578125 C 44.765625 -61.679688 44.414062 -63.46875 43.71875 -64.9375 C 43.019531 -66.414062 42.175781 -67.539062 41.1875 -68.3125 C 40.207031 -69.082031 38.910156 -69.675781 37.296875 -70.09375 C 35.691406 -70.519531 34.257812 -70.765625 33 -70.828125 C 31.738281 -70.898438 30.195312 -70.9375 28.375 -70.9375 L 26.0625 -70.9375 Z M 26.0625 -48.234375 "/></g></g></g><g clip-path="url(#915e79e896)"><g clip-path="url(#d79cb1a481)"><g clip-path="url(#341f4885ab)"><path fill="#cdb4ff" d="M 236.507812 178.300781 C 236.511719 178.300781 236.515625 178.3125 236.519531 178.339844 C 236.519531 178.433594 236.492188 178.585938 236.457031 178.664062 C 236.445312 178.691406 236.433594 178.703125 236.429688 178.703125 C 236.414062 178.699219 236.417969 178.621094 236.441406 178.496094 C 236.464844 178.371094 236.488281 178.296875 236.507812 178.300781 Z M 148.457031 145.699219 C 148.238281 145.660156 148.078125 145.6875 147.882812 145.789062 C 147.65625 145.910156 147.589844 146.011719 147.523438 146.359375 C 147.449219 146.734375 147.480469 146.835938 147.730469 147.191406 C 147.890625 147.417969 148.195312 147.84375 148.410156 148.136719 C 148.617188 148.425781 148.917969 148.929688 149.0625 149.246094 C 149.203125 149.566406 149.414062 149.886719 149.523438 149.972656 C 149.621094 150.0625 149.695312 150.179688 149.683594 150.238281 C 149.671875 150.304688 149.726562 150.476562 149.8125 150.628906 L 149.953125 150.910156 L 149.695312 151.148438 C 149.5625 151.277344 149.429688 151.363281 149.390625 151.355469 C 149.386719 151.355469 149.386719 151.351562 149.382812 151.351562 C 149.015625 151.046875 147.996094 150.457031 147.457031 150.246094 C 147.230469 150.15625 146.84375 150.003906 146.59375 149.898438 C 145.929688 149.636719 145.304688 149.304688 144.910156 148.996094 C 144.714844 148.84375 144.398438 148.695312 144.191406 148.65625 C 144.191406 148.65625 144.191406 148.65625 144.1875 148.652344 C 143.882812 148.59375 143.777344 148.625 143.554688 148.832031 C 143.222656 149.15625 143.011719 149.804688 143.152344 150.128906 C 143.265625 150.402344 144.476562 151.222656 144.898438 151.304688 C 144.898438 151.308594 144.902344 151.308594 144.902344 151.308594 C 145.042969 151.335938 145.390625 151.535156 145.660156 151.742188 C 145.929688 151.957031 146.222656 152.140625 146.296875 152.15625 C 146.375 152.167969 146.640625 152.277344 146.890625 152.402344 C 147.136719 152.527344 147.507812 152.714844 147.71875 152.8125 C 148.046875 152.972656 148.089844 153.011719 147.964844 153.113281 C 147.890625 153.175781 147.808594 153.195312 147.691406 153.171875 C 147.636719 153.160156 147.574219 153.140625 147.5 153.109375 C 147.101562 152.964844 143.722656 152.195312 142.238281 151.90625 C 141.902344 151.839844 141.660156 151.796875 141.574219 151.792969 C 141.066406 151.765625 140.945312 151.894531 140.808594 152.625 C 140.648438 153.492188 140.761719 153.621094 141.917969 153.941406 C 142.441406 154.089844 143.304688 154.332031 143.839844 154.480469 C 144.371094 154.640625 145.363281 154.871094 146.050781 155.011719 L 147.292969 155.25 L 147.125 155.429688 C 147.027344 155.527344 146.882812 155.625 146.800781 155.648438 C 146.578125 155.703125 145.738281 155.746094 145.199219 155.71875 C 144.941406 155.707031 144.46875 155.734375 144.160156 155.792969 C 143.851562 155.839844 143.132812 155.835938 142.5625 155.796875 C 141.125 155.675781 141.050781 155.699219 140.878906 156.402344 C 140.769531 156.867188 140.773438 157.003906 140.894531 157.21875 C 141.023438 157.4375 141.054688 157.480469 141.835938 157.632812 C 142.039062 157.671875 142.292969 157.71875 142.609375 157.777344 C 144.253906 158.074219 145.730469 158.164062 146.359375 158.003906 C 146.617188 157.933594 146.925781 157.953125 147.601562 158.085938 C 147.648438 158.09375 147.699219 158.105469 147.75 158.113281 C 148.664062 158.296875 148.835938 158.359375 149.214844 158.65625 C 149.453125 158.835938 149.660156 159.019531 149.679688 159.074219 C 149.714844 159.175781 149.371094 159.875 149.128906 160.167969 C 149.050781 160.28125 148.835938 160.441406 148.660156 160.542969 C 148.160156 160.84375 147.839844 161.742188 147.804688 162.992188 C 147.769531 164.101562 147.835938 164.34375 148.445312 164.464844 C 148.535156 164.480469 148.640625 164.496094 148.753906 164.511719 L 149.21875 164.570312 L 149.359375 163.921875 C 149.5 163.25 149.707031 162.667969 149.824219 162.605469 C 149.953125 162.535156 150.648438 161.902344 150.660156 161.835938 C 150.691406 161.675781 152.226562 160.933594 152.441406 160.976562 C 152.476562 160.984375 152.667969 160.902344 152.839844 160.800781 C 153.210938 160.582031 153.453125 160.53125 154.097656 160.507812 C 154.339844 160.507812 154.738281 160.449219 154.972656 160.394531 C 155.214844 160.335938 155.457031 160.292969 155.519531 160.308594 C 155.585938 160.320312 155.824219 160.191406 156.042969 160.011719 C 156.488281 159.660156 156.683594 159.648438 159.039062 159.78125 C 160.800781 159.882812 161.234375 159.9375 163.898438 160.4375 C 164.152344 160.488281 164.390625 160.535156 164.613281 160.578125 C 166.855469 161.015625 167.515625 161.203125 168.410156 161.632812 C 169.09375 161.964844 169.390625 162.078125 170.742188 162.601562 C 171.167969 162.757812 171.835938 163.011719 172.230469 163.164062 C 173.277344 163.582031 174.308594 163.875 175.734375 164.152344 C 176.160156 164.234375 176.617188 164.316406 177.125 164.402344 L 179.28125 164.757812 L 179.476562 165.015625 C 179.582031 165.160156 179.921875 165.574219 180.21875 165.941406 C 180.523438 166.308594 181.054688 167.039062 181.414062 167.574219 C 182.054688 168.527344 182.882812 169.617188 183.074219 169.738281 C 183.121094 169.777344 183.25 169.917969 183.359375 170.054688 C 183.699219 170.519531 184.085938 170.960938 184.554688 171.40625 C 184.808594 171.648438 185.070312 171.953125 185.144531 172.070312 C 185.214844 172.191406 185.347656 172.304688 185.441406 172.324219 L 185.445312 172.324219 C 185.535156 172.339844 185.613281 172.441406 185.632812 172.542969 C 185.640625 172.652344 185.707031 172.769531 185.777344 172.8125 C 186.019531 172.957031 185.820312 173.441406 185.339844 173.878906 C 185.089844 174.113281 184.777344 174.429688 184.652344 174.589844 C 184.523438 174.75 184.257812 175.019531 184.066406 175.175781 C 183.878906 175.335938 183.589844 175.578125 183.429688 175.722656 C 183.019531 176.078125 182.753906 176.261719 182.253906 176.542969 C 181.085938 177.179688 180.0625 177.828125 179.394531 178.347656 C 179.210938 178.496094 178.613281 178.941406 178.070312 179.351562 C 177.519531 179.75 177.070312 180.121094 177.0625 180.15625 C 177.046875 180.230469 176.59375 180.636719 176.128906 180.984375 C 175.972656 181.101562 175.59375 181.40625 175.292969 181.667969 C 174.992188 181.917969 174.203125 182.503906 173.542969 182.96875 C 172.886719 183.421875 172.0625 184.03125 171.71875 184.3125 C 171.375 184.59375 171.046875 184.832031 171.007812 184.835938 C 170.96875 184.847656 170.785156 185.042969 170.617188 185.273438 C 170.4375 185.5 170.257812 185.679688 170.210938 185.667969 C 170.171875 185.664062 169.949219 185.871094 169.734375 186.128906 C 169.035156 186.964844 168.777344 187.234375 168.476562 187.449219 C 168.308594 187.570312 168.167969 187.699219 168.15625 187.753906 C 168.140625 187.839844 167.238281 188.566406 166.648438 188.964844 C 166.480469 189.078125 166.296875 189.277344 166.234375 189.410156 C 166.179688 189.535156 166.050781 189.664062 165.945312 189.691406 C 165.84375 189.730469 165.71875 189.824219 165.660156 189.917969 C 165.617188 190.007812 165.457031 190.082031 165.308594 190.085938 C 164.757812 190.09375 163.785156 190.769531 163.5 191.34375 C 163.324219 191.707031 162.195312 192.558594 161.953125 192.511719 C 161.867188 192.496094 161.511719 192.582031 161.152344 192.695312 C 160.644531 192.871094 160.449219 192.988281 160.226562 193.285156 C 159.9375 193.675781 159.65625 193.84375 159.234375 193.859375 C 159.078125 193.867188 158.890625 193.988281 158.738281 194.1875 C 158.609375 194.359375 158.328125 194.605469 158.121094 194.71875 C 157.914062 194.84375 157.683594 194.984375 157.617188 195.03125 C 157.363281 195.203125 156.429688 195.421875 156.160156 195.371094 C 156.007812 195.34375 155.84375 195.347656 155.804688 195.398438 C 155.769531 195.441406 155.441406 195.574219 155.089844 195.699219 C 154.730469 195.8125 154.316406 195.996094 154.171875 196.09375 C 154.035156 196.203125 153.675781 196.308594 153.378906 196.339844 C 152.996094 196.382812 152.804688 196.453125 152.699219 196.605469 C 152.621094 196.714844 152.4375 196.816406 152.300781 196.828125 C 152.164062 196.832031 151.972656 196.871094 151.882812 196.925781 C 151.792969 196.984375 151.46875 197.078125 151.152344 197.152344 C 150.851562 197.21875 150.492188 197.363281 150.363281 197.476562 C 150.238281 197.585938 150.082031 197.683594 150.015625 197.6875 C 149.855469 197.714844 149.128906 198.128906 148.402344 198.628906 C 147.421875 199.292969 147.273438 199.410156 147.054688 199.699219 C 146.941406 199.851562 146.808594 199.96875 146.761719 199.960938 C 146.714844 199.953125 146.609375 200.066406 146.5 200.222656 C 146.40625 200.367188 146.144531 200.664062 145.929688 200.875 C 145.714844 201.097656 145.53125 201.292969 145.523438 201.332031 C 145.519531 201.359375 145.292969 201.675781 145.023438 202.027344 C 144.75 202.394531 144.402344 202.9375 144.246094 203.253906 C 144.089844 203.574219 143.910156 203.90625 143.851562 204 C 143.632812 204.335938 143.199219 205.378906 143.136719 205.722656 C 143.097656 205.917969 142.976562 206.1875 142.875 206.320312 C 142.773438 206.449219 142.65625 206.707031 142.621094 206.882812 C 142.589844 207.0625 142.496094 207.285156 142.410156 207.386719 C 142.25 207.578125 141.988281 208.222656 141.820312 208.851562 C 141.667969 209.402344 141.546875 209.5625 141.269531 209.652344 C 141.117188 209.703125 140.996094 209.816406 140.972656 209.945312 C 140.949219 210.058594 140.816406 210.195312 140.671875 210.253906 C 140.535156 210.316406 140.359375 210.476562 140.292969 210.617188 C 140.152344 210.882812 139.558594 211.417969 139.042969 211.734375 C 138.867188 211.835938 138.4375 212.121094 138.089844 212.355469 C 137.734375 212.597656 137.425781 212.789062 137.398438 212.785156 C 137.34375 212.773438 135.035156 214.328125 134.3125 214.867188 C 134.085938 215.027344 133.828125 215.257812 133.742188 215.355469 C 133.664062 215.46875 133.429688 215.683594 133.234375 215.839844 C 133.027344 216.003906 132.820312 216.1875 132.746094 216.261719 C 132.683594 216.335938 132.332031 216.664062 131.96875 216.992188 C 131.183594 217.703125 130.742188 218.132812 130.242188 218.722656 C 130.042969 218.957031 129.75 219.269531 129.609375 219.398438 C 129.460938 219.53125 129.332031 219.691406 129.324219 219.738281 C 129.3125 219.792969 129.179688 219.933594 129.027344 220.058594 C 128.882812 220.175781 128.636719 220.449219 128.472656 220.648438 C 128.3125 220.863281 128.105469 221.082031 128.007812 221.140625 C 127.921875 221.203125 127.757812 221.386719 127.652344 221.539062 C 127.554688 221.695312 127.433594 221.816406 127.398438 221.808594 C 127.359375 221.800781 127.082031 222.039062 126.792969 222.34375 C 126.5 222.652344 126.191406 222.945312 126.117188 222.996094 C 126.039062 223.050781 125.953125 223.179688 125.933594 223.28125 C 125.917969 223.375 125.863281 223.453125 125.816406 223.441406 C 125.769531 223.433594 125.527344 223.648438 125.28125 223.921875 C 125.035156 224.191406 124.753906 224.449219 124.648438 224.496094 C 124.550781 224.546875 124.34375 224.710938 124.203125 224.847656 C 124.050781 224.992188 123.785156 225.15625 123.605469 225.195312 C 123.417969 225.25 122.757812 225.617188 122.128906 226.027344 C 120.734375 226.933594 120.425781 227.09375 119.554688 227.34375 C 119.183594 227.449219 118.804688 227.558594 118.722656 227.59375 C 118.144531 227.773438 117 228.046875 116.792969 228.066406 C 116.460938 228.078125 115.910156 228.214844 115.828125 228.296875 C 115.792969 228.339844 115.460938 228.460938 115.089844 228.5625 C 114.710938 228.675781 114.375 228.804688 114.347656 228.867188 C 114.304688 228.925781 114.21875 228.96875 114.144531 228.953125 C 114.042969 228.933594 113.574219 229.054688 112.929688 229.28125 C 112.816406 229.320312 112.46875 229.417969 112.164062 229.492188 C 111.855469 229.578125 111.28125 229.75 110.878906 229.886719 C 110.488281 230.015625 109.960938 230.175781 109.738281 230.238281 C 109.5 230.308594 109.011719 230.546875 108.648438 230.765625 C 108.289062 230.988281 107.953125 231.15625 107.910156 231.148438 C 107.796875 231.125 106.121094 232.335938 105.683594 232.753906 C 105.492188 232.941406 105.136719 233.230469 104.910156 233.410156 C 103.957031 234.148438 103.679688 234.382812 103.664062 234.46875 C 103.648438 234.550781 102.957031 235.019531 101.273438 236.082031 C 100.910156 236.3125 100.019531 236.925781 99.296875 237.445312 C 98.578125 237.96875 97.679688 238.617188 97.300781 238.894531 C 96.917969 239.167969 96.464844 239.507812 96.300781 239.660156 C 95.914062 240.003906 95.136719 240.542969 94.460938 240.933594 C 94.175781 241.09375 93.941406 241.261719 93.9375 241.289062 C 93.90625 241.449219 91.675781 242.832031 91.253906 242.964844 C 90.988281 243.046875 90.648438 243.148438 90.515625 243.191406 C 90.371094 243.238281 90.191406 243.359375 90.125 243.464844 C 90.003906 243.625 89.484375 243.875 88.632812 244.167969 C 88.53125 244.203125 88.351562 244.285156 88.242188 244.351562 C 88.128906 244.429688 87.902344 244.453125 87.734375 244.421875 C 87.574219 244.390625 87.320312 244.410156 87.183594 244.46875 C 86.992188 244.546875 86.464844 244.507812 85.980469 244.410156 C 85.53125 244.324219 85.117188 244.191406 85.03125 244.066406 C 84.96875 243.957031 84.859375 243.871094 84.785156 243.855469 L 84.78125 243.855469 C 84.71875 243.84375 84.558594 243.753906 84.433594 243.652344 C 84.308594 243.550781 83.921875 243.390625 83.574219 243.285156 C 83.226562 243.179688 82.953125 243.058594 82.960938 243.011719 C 82.96875 242.964844 82.792969 242.671875 82.582031 242.371094 C 82.253906 241.921875 82.109375 241.796875 81.851562 241.746094 C 81.851562 241.746094 81.847656 241.746094 81.847656 241.746094 C 81.660156 241.710938 81.417969 241.722656 81.300781 241.777344 C 81.183594 241.832031 80.992188 241.871094 80.867188 241.867188 C 80.695312 241.855469 80.523438 241.984375 80.210938 242.402344 C 79.867188 242.835938 79.691406 243.199219 79.332031 244.214844 C 78.953125 245.296875 78.78125 245.980469 78.21875 248.773438 C 77.855469 250.582031 77.355469 252.789062 77.105469 253.691406 C 76.855469 254.582031 76.523438 255.824219 76.371094 256.457031 C 76.222656 257.074219 76.042969 257.671875 75.980469 257.785156 C 75.914062 257.886719 75.769531 258.199219 75.667969 258.46875 C 74.523438 261.359375 74.125 263.691406 74.433594 265.636719 C 74.496094 266.015625 74.550781 266.472656 74.566406 266.648438 C 74.582031 267.019531 74.773438 267.386719 75.292969 268.058594 C 75.632812 268.496094 75.679688 268.535156 76.195312 268.636719 C 76.226562 268.640625 76.257812 268.648438 76.292969 268.65625 C 77.199219 268.828125 77.863281 268.636719 78.261719 268.082031 C 78.574219 267.667969 78.941406 266.953125 79.171875 266.351562 C 79.242188 266.152344 79.457031 265.777344 79.640625 265.519531 C 79.835938 265.265625 80.097656 264.863281 80.230469 264.625 C 80.351562 264.390625 80.59375 264.097656 80.742188 263.96875 C 80.902344 263.84375 81.042969 263.660156 81.0625 263.558594 C 81.082031 263.464844 81.132812 263.386719 81.191406 263.398438 C 81.285156 263.414062 81.753906 262.980469 82.167969 262.480469 C 82.292969 262.332031 82.417969 262.042969 82.453125 261.800781 C 82.5 261.566406 82.660156 261.125 82.820312 260.804688 C 83.070312 260.292969 83.128906 260.234375 83.382812 260.234375 C 83.613281 260.242188 83.695312 260.167969 83.863281 259.84375 C 83.984375 259.613281 84.21875 259.359375 84.457031 259.222656 C 84.667969 259.085938 84.851562 258.9375 84.859375 258.890625 C 84.882812 258.769531 85.6875 257.957031 85.949219 257.792969 C 86.0625 257.71875 86.171875 257.585938 86.191406 257.492188 C 86.210938 257.398438 86.300781 257.28125 86.386719 257.230469 C 86.472656 257.179688 86.558594 257.085938 86.570312 257.023438 C 86.59375 256.902344 87.109375 256.738281 87.449219 256.734375 C 87.554688 256.734375 87.667969 256.652344 87.707031 256.542969 C 87.75 256.433594 87.890625 256.296875 88.035156 256.246094 C 88.320312 256.128906 88.460938 255.691406 88.347656 255.234375 C 88.292969 255.007812 88.324219 254.949219 88.570312 254.761719 C 88.730469 254.648438 88.953125 254.449219 89.070312 254.324219 C 89.191406 254.203125 89.449219 253.980469 89.636719 253.84375 C 89.828125 253.707031 90.082031 253.492188 90.203125 253.378906 C 90.320312 253.257812 90.5 253.175781 90.59375 253.195312 C 90.699219 253.214844 90.789062 253.183594 90.800781 253.128906 C 90.8125 253.0625 90.921875 252.957031 91.050781 252.886719 C 91.179688 252.8125 91.378906 252.628906 91.507812 252.476562 C 91.632812 252.320312 91.820312 252.210938 91.933594 252.210938 C 92.050781 252.214844 92.226562 252.113281 92.328125 251.976562 C 92.429688 251.84375 92.597656 251.730469 92.699219 251.710938 C 92.90625 251.691406 93.910156 251.050781 93.933594 250.929688 C 93.949219 250.835938 94.605469 250.285156 95.203125 249.847656 C 95.449219 249.671875 95.660156 249.480469 95.671875 249.421875 C 95.703125 249.253906 97.074219 248.367188 98.203125 247.777344 C 98.761719 247.488281 99.335938 247.171875 99.480469 247.074219 C 99.621094 246.984375 99.769531 246.917969 99.800781 246.921875 C 99.835938 246.929688 100.324219 246.703125 100.902344 246.417969 C 101.472656 246.128906 102.042969 245.859375 102.179688 245.820312 C 102.3125 245.777344 102.503906 245.6875 102.59375 245.617188 C 102.683594 245.546875 102.929688 245.4375 103.125 245.378906 C 103.320312 245.320312 103.652344 245.191406 103.859375 245.085938 C 104.058594 244.988281 104.402344 244.859375 104.617188 244.804688 C 104.820312 244.757812 105 244.683594 105.007812 244.636719 C 105.015625 244.601562 105.195312 244.527344 105.40625 244.472656 C 105.613281 244.414062 105.976562 244.28125 106.210938 244.171875 C 106.914062 243.839844 107.730469 243.503906 107.808594 243.515625 C 107.851562 243.527344 108.117188 243.402344 108.410156 243.246094 C 108.691406 243.085938 108.984375 242.96875 109.050781 242.980469 C 109.125 242.996094 109.292969 242.890625 109.433594 242.761719 C 109.574219 242.625 109.738281 242.53125 109.8125 242.546875 C 109.878906 242.558594 110.195312 242.425781 110.519531 242.246094 C 110.84375 242.066406 111.148438 241.929688 111.207031 241.941406 C 111.253906 241.949219 111.410156 241.875 111.558594 241.765625 C 111.703125 241.660156 111.875 241.585938 111.929688 241.597656 C 111.996094 241.609375 112.269531 241.488281 112.542969 241.324219 C 112.816406 241.164062 113.070312 241.039062 113.117188 241.050781 C 113.164062 241.058594 113.378906 240.945312 113.59375 240.792969 C 113.796875 240.636719 114.148438 240.472656 114.363281 240.40625 C 114.570312 240.339844 114.753906 240.25 114.761719 240.203125 C 114.769531 240.15625 114.972656 240.066406 115.214844 240 C 115.777344 239.84375 116.101562 239.730469 116.253906 239.625 C 116.324219 239.582031 116.433594 239.554688 116.5 239.566406 C 116.566406 239.578125 116.796875 239.527344 117.015625 239.441406 C 117.226562 239.355469 117.59375 239.253906 117.835938 239.210938 C 118.078125 239.160156 118.558594 239.011719 118.917969 238.867188 C 119.265625 238.722656 119.605469 238.613281 119.671875 238.625 C 119.726562 238.636719 119.839844 238.597656 119.910156 238.542969 C 119.980469 238.480469 120.292969 238.40625 120.601562 238.367188 C 120.917969 238.320312 121.253906 238.25 121.347656 238.199219 C 121.4375 238.148438 121.566406 238.117188 121.625 238.125 C 121.6875 238.140625 121.816406 238.125 121.921875 238.085938 C 122.015625 238.054688 122.390625 237.953125 122.757812 237.859375 C 123.910156 237.558594 124.058594 237.5 124.9375 236.949219 C 126.167969 236.1875 126.414062 236.050781 126.714844 235.953125 C 126.867188 235.90625 127.121094 235.761719 127.28125 235.628906 C 127.441406 235.503906 127.613281 235.402344 127.660156 235.410156 C 127.707031 235.417969 128.117188 235.199219 128.5625 234.90625 C 129.011719 234.625 129.414062 234.390625 129.460938 234.398438 C 129.507812 234.410156 129.632812 234.363281 129.742188 234.296875 C 129.914062 234.195312 130.277344 234.070312 131.921875 233.574219 C 132.304688 233.453125 132.652344 233.304688 132.710938 233.25 C 132.761719 233.191406 132.980469 233.097656 133.183594 233.050781 C 133.386719 232.992188 133.578125 232.921875 133.601562 232.886719 C 133.628906 232.855469 133.90625 232.722656 134.21875 232.597656 C 134.53125 232.476562 134.964844 232.296875 135.167969 232.179688 C 135.375 232.074219 135.664062 231.925781 135.8125 231.851562 C 135.964844 231.773438 136.375 231.550781 136.730469 231.367188 C 137.558594 230.933594 138.046875 230.640625 139.035156 229.988281 C 140.066406 229.304688 140.449219 229.078125 140.820312 228.945312 C 140.980469 228.878906 141.257812 228.738281 141.433594 228.628906 C 142.121094 228.167969 143.582031 227.363281 143.933594 227.246094 C 144.132812 227.179688 144.605469 226.929688 144.96875 226.699219 C 145.839844 226.148438 145.949219 226.074219 146.097656 225.949219 C 146.394531 225.714844 147.089844 225.316406 147.261719 225.289062 C 147.371094 225.273438 147.484375 225.179688 147.53125 225.082031 C 147.582031 224.972656 147.761719 224.851562 147.925781 224.808594 C 148.089844 224.761719 148.289062 224.625 148.367188 224.515625 C 148.449219 224.394531 148.550781 224.308594 148.609375 224.316406 C 148.65625 224.328125 148.925781 224.175781 149.21875 223.96875 C 150.929688 222.796875 152.671875 221.738281 153.71875 221.230469 C 153.910156 221.132812 154.28125 220.929688 154.53125 220.777344 C 154.78125 220.628906 155.027344 220.511719 155.066406 220.519531 C 155.101562 220.527344 155.292969 220.449219 155.488281 220.332031 C 156.117188 219.984375 157.136719 219.5625 157.265625 219.585938 C 157.339844 219.601562 157.441406 219.570312 157.480469 219.519531 C 157.53125 219.472656 157.757812 219.351562 157.992188 219.242188 C 158.21875 219.132812 158.347656 219.085938 158.484375 219.113281 C 158.59375 219.136719 158.707031 219.199219 158.875 219.3125 C 159.382812 219.652344 160.484375 220.199219 160.757812 220.253906 C 160.929688 220.289062 161.476562 220.546875 161.984375 220.828125 C 162.484375 221.105469 163.046875 221.390625 163.238281 221.453125 C 163.421875 221.519531 163.953125 221.773438 164.410156 222.015625 C 164.867188 222.257812 165.421875 222.550781 165.644531 222.648438 C 165.863281 222.761719 166.324219 222.992188 166.652344 223.183594 C 166.996094 223.363281 167.746094 223.652344 168.324219 223.820312 C 168.898438 223.988281 169.746094 224.269531 170.191406 224.429688 C 170.640625 224.601562 171.839844 225.007812 172.875 225.332031 C 173.902344 225.664062 175.066406 226.058594 175.464844 226.214844 C 175.859375 226.375 176.65625 226.65625 177.230469 226.839844 C 178.714844 227.320312 179.085938 227.457031 179.175781 227.550781 C 179.222656 227.601562 179.460938 227.722656 179.703125 227.828125 C 179.953125 227.933594 180.261719 228.089844 180.402344 228.164062 L 180.644531 228.316406 L 179.378906 229.167969 C 177.957031 230.136719 177.457031 230.503906 176.699219 231.191406 C 176.40625 231.457031 176.054688 231.726562 175.921875 231.800781 C 175.792969 231.871094 175.640625 232.007812 175.582031 232.109375 C 175.535156 232.21875 175.390625 232.355469 175.285156 232.410156 C 175.175781 232.476562 174.945312 232.722656 174.761719 232.960938 C 174.582031 233.1875 174.339844 233.441406 174.222656 233.515625 C 174.101562 233.589844 173.949219 233.765625 173.894531 233.898438 C 173.839844 234.035156 173.632812 234.3125 173.449219 234.511719 C 173.257812 234.714844 173.050781 234.976562 172.992188 235.089844 C 172.921875 235.203125 172.75 235.429688 172.59375 235.59375 C 172.445312 235.761719 172.21875 236.035156 172.105469 236.21875 C 171.988281 236.386719 171.742188 236.660156 171.554688 236.820312 C 171.378906 236.988281 171.101562 237.265625 170.953125 237.449219 C 170.421875 238.09375 170.027344 238.53125 169.636719 238.902344 C 169.414062 239.109375 169.230469 239.316406 169.222656 239.363281 C 169.210938 239.410156 169.050781 239.59375 168.851562 239.765625 C 168.667969 239.933594 168.496094 240.113281 168.488281 240.160156 C 168.480469 240.207031 168.308594 240.390625 168.117188 240.574219 C 167.917969 240.757812 167.496094 241.203125 167.164062 241.5625 C 166.84375 241.929688 166.445312 242.328125 166.277344 242.449219 C 166.121094 242.5625 165.941406 242.753906 165.882812 242.847656 C 165.824219 242.953125 165.578125 243.226562 165.332031 243.449219 C 165.078125 243.671875 164.863281 243.921875 164.847656 244.003906 C 164.832031 244.097656 164.78125 244.15625 164.726562 244.144531 C 164.679688 244.136719 164.492188 244.296875 164.320312 244.496094 C 164.144531 244.703125 163.789062 244.992188 163.535156 245.148438 C 163.285156 245.304688 162.882812 245.625 162.65625 245.851562 C 162.425781 246.085938 162.1875 246.273438 162.121094 246.261719 C 161.945312 246.226562 161.667969 246.464844 161.625 246.6875 C 161.601562 246.808594 161.402344 247.035156 161.191406 247.1875 C 160.976562 247.347656 160.78125 247.554688 160.761719 247.65625 C 160.746094 247.75 160.691406 247.828125 160.652344 247.820312 C 160.605469 247.8125 160.425781 247.949219 160.226562 248.132812 C 160.035156 248.3125 159.769531 248.550781 159.632812 248.660156 C 159.484375 248.765625 159.359375 248.925781 159.34375 249.011719 C 159.296875 249.238281 158.011719 250.152344 157.8125 250.113281 C 157.800781 250.113281 157.792969 250.105469 157.789062 250.097656 C 157.742188 249.976562 157.480469 249.851562 157.230469 249.804688 C 157.097656 249.777344 156.96875 249.773438 156.878906 249.796875 C 156.761719 249.84375 156.453125 250.152344 156.203125 250.492188 C 155.753906 251.113281 154.992188 251.925781 154.75 252.0625 C 154.492188 252.195312 153.523438 253.519531 153.390625 253.902344 C 153.300781 254.175781 153.171875 254.355469 152.917969 254.519531 C 152.71875 254.636719 152.515625 254.847656 152.460938 254.984375 C 152.351562 255.203125 151.5 255.652344 151.246094 255.601562 C 151.097656 255.574219 150.757812 255.933594 150.714844 256.167969 C 150.644531 256.53125 150.878906 257.234375 151.21875 257.679688 C 151.839844 258.472656 152.015625 258.671875 152.238281 258.820312 C 152.359375 258.894531 152.574219 259.039062 152.730469 259.136719 C 152.875 259.242188 153.039062 259.332031 153.105469 259.34375 C 153.164062 259.355469 153.328125 259.496094 153.472656 259.65625 C 153.613281 259.820312 153.761719 259.957031 153.792969 259.960938 C 153.828125 259.96875 154.050781 260.117188 154.296875 260.300781 C 154.535156 260.472656 154.875 260.671875 155.058594 260.734375 C 155.355469 260.851562 156.3125 261.410156 156.628906 261.664062 C 156.707031 261.71875 156.9375 261.832031 157.144531 261.910156 C 157.351562 261.988281 157.6875 262.167969 157.882812 262.3125 C 158.304688 262.625 159.140625 263.113281 159.308594 263.144531 C 159.375 263.160156 159.675781 263.351562 159.976562 263.5625 C 160.28125 263.785156 160.59375 263.972656 160.667969 263.984375 C 160.742188 264 161.042969 264.210938 161.324219 264.449219 C 161.609375 264.6875 161.949219 264.9375 162.082031 265 C 162.207031 265.054688 162.417969 265.210938 162.539062 265.339844 C 162.667969 265.472656 162.949219 265.671875 163.171875 265.78125 C 163.390625 265.902344 163.738281 266.152344 163.953125 266.335938 C 164.160156 266.53125 164.457031 266.742188 164.597656 266.808594 C 164.75 266.878906 165.054688 267.070312 165.269531 267.246094 C 165.507812 267.429688 165.867188 267.613281 166.109375 267.667969 C 166.351562 267.726562 166.558594 267.804688 166.589844 267.847656 C 166.675781 268.039062 167.648438 268.332031 169.578125 268.757812 C 170.074219 268.867188 170.46875 268.949219 170.773438 269.007812 C 171.398438 269.132812 171.652344 269.15625 171.664062 269.101562 C 171.671875 269.042969 171.851562 269.027344 172.113281 269.078125 C 173.054688 269.257812 174.8125 269.035156 175.207031 268.683594 C 175.289062 268.613281 175.417969 268.5 175.496094 268.449219 C 175.949219 268.140625 176.058594 267.925781 176.136719 267.214844 C 176.199219 266.542969 176.121094 265.878906 175.972656 265.847656 C 175.933594 265.84375 175.867188 265.734375 175.828125 265.597656 C 175.707031 265.207031 175.234375 264.894531 174.191406 264.492188 C 173.820312 264.34375 173.171875 264.09375 172.746094 263.933594 C 172.324219 263.765625 171.847656 263.589844 171.691406 263.53125 C 171.476562 263.449219 171.402344 263.367188 171.429688 263.238281 C 171.449219 263.136719 171.363281 262.984375 171.234375 262.890625 C 171.105469 262.796875 171.003906 262.632812 171.003906 262.527344 C 171.003906 262.21875 170.894531 262.089844 170.484375 261.945312 C 170.277344 261.867188 169.902344 261.648438 169.65625 261.464844 C 169.292969 261.195312 169.1875 261.046875 169.097656 260.691406 C 169.039062 260.449219 168.933594 260.246094 168.859375 260.230469 C 168.785156 260.214844 168.730469 260.148438 168.742188 260.082031 C 168.757812 260.007812 168.625 259.789062 168.449219 259.582031 C 168.277344 259.382812 168.09375 259.078125 168.046875 258.914062 C 167.992188 258.746094 167.851562 258.554688 167.738281 258.503906 C 167.59375 258.4375 167.527344 258.339844 167.546875 258.226562 C 167.566406 258.125 167.523438 258.007812 167.453125 257.96875 C 167.386719 257.914062 167.335938 257.820312 167.351562 257.742188 C 167.363281 257.667969 167.210938 257.367188 166.996094 257.066406 C 166.59375 256.496094 166.550781 256.207031 166.859375 256.265625 C 166.953125 256.285156 167.097656 256.226562 167.175781 256.125 C 167.339844 255.933594 167.355469 255.492188 167.207031 255.460938 C 167.148438 255.449219 167.140625 255.304688 167.171875 255.125 C 167.207031 254.957031 167.167969 254.691406 167.09375 254.539062 C 166.925781 254.238281 167.023438 253.886719 167.410156 253.324219 C 167.984375 252.511719 168.09375 252.332031 168.117188 252.210938 C 168.132812 252.132812 168.210938 252.074219 168.292969 252.050781 C 168.382812 252.039062 168.464844 251.90625 168.496094 251.75 C 168.527344 251.601562 168.582031 251.464844 168.628906 251.457031 C 168.800781 251.421875 169.347656 250.839844 169.382812 250.660156 C 169.402344 250.546875 169.46875 250.472656 169.511719 250.480469 C 169.570312 250.492188 169.625 250.398438 169.648438 250.277344 C 169.671875 250.164062 169.816406 249.96875 169.972656 249.855469 C 170.117188 249.746094 170.570312 249.359375 170.96875 248.988281 C 171.367188 248.628906 171.84375 248.226562 172.011719 248.105469 C 172.675781 247.613281 173.136719 247.226562 173.152344 247.152344 C 173.167969 247.105469 173.324219 247.011719 173.511719 246.941406 C 173.699219 246.871094 173.898438 246.734375 173.96875 246.628906 C 174.035156 246.535156 174.222656 246.410156 174.386719 246.351562 C 174.542969 246.296875 174.6875 246.199219 174.703125 246.132812 C 174.722656 246.070312 174.921875 245.933594 175.144531 245.828125 C 175.378906 245.730469 175.582031 245.574219 175.597656 245.5 C 175.609375 245.425781 175.679688 245.371094 175.746094 245.382812 C 175.820312 245.398438 176.054688 245.277344 176.28125 245.117188 C 176.492188 244.964844 176.898438 244.722656 177.175781 244.589844 C 177.441406 244.460938 177.832031 244.242188 178.019531 244.113281 C 178.21875 243.988281 178.789062 243.632812 179.300781 243.34375 C 180.921875 242.394531 186.628906 238.484375 187.824219 237.492188 C 188.628906 236.824219 188.960938 236.566406 189.277344 236.367188 C 190.550781 235.574219 193.824219 233.191406 193.855469 233.023438 C 193.875 232.921875 194.808594 231.996094 195.160156 231.722656 C 195.644531 231.363281 196.476562 230.367188 196.664062 229.929688 C 196.765625 229.707031 196.953125 228.988281 197.078125 228.335938 C 197.285156 227.25 197.292969 227.097656 197.15625 226.65625 C 197.082031 226.390625 196.933594 226.050781 196.816406 225.902344 C 196.707031 225.757812 196.628906 225.605469 196.640625 225.558594 C 196.648438 225.511719 196.566406 225.441406 196.449219 225.386719 C 196.335938 225.328125 196.121094 225.09375 195.960938 224.851562 C 195.78125 224.582031 195.3125 224.144531 194.730469 223.703125 C 194.214844 223.316406 193.734375 222.941406 193.667969 222.882812 C 193.601562 222.820312 193.203125 222.523438 192.789062 222.210938 C 192.367188 221.898438 191.808594 221.421875 191.53125 221.15625 C 191.25 220.890625 190.875 220.539062 190.683594 220.367188 C 190.496094 220.195312 190.089844 219.824219 189.789062 219.535156 C 189.484375 219.253906 189.160156 218.980469 189.078125 218.9375 C 188.992188 218.890625 188.929688 218.808594 188.9375 218.761719 C 188.949219 218.71875 188.90625 218.671875 188.851562 218.660156 C 188.796875 218.648438 188.636719 218.511719 188.496094 218.347656 C 188.351562 218.1875 188.195312 218.050781 188.136719 218.039062 C 188.089844 218.03125 187.984375 217.921875 187.921875 217.8125 C 187.847656 217.691406 187.664062 217.523438 187.519531 217.425781 C 187.363281 217.328125 187.082031 217.082031 186.882812 216.871094 C 186.679688 216.667969 186.421875 216.441406 186.296875 216.378906 C 186.171875 216.316406 186.007812 216.171875 185.921875 216.058594 C 185.839844 215.945312 185.59375 215.753906 185.386719 215.625 C 185.1875 215.507812 184.917969 215.292969 184.792969 215.144531 C 184.675781 214.996094 184.441406 214.796875 184.285156 214.699219 C 184.121094 214.597656 183.933594 214.46875 183.867188 214.40625 C 183.800781 214.355469 183.605469 214.199219 183.445312 214.082031 C 183.285156 213.964844 182.78125 213.609375 182.339844 213.28125 C 181.898438 212.953125 181.425781 212.601562 181.28125 212.496094 C 181.148438 212.386719 180.84375 212.152344 180.605469 211.972656 C 180.378906 211.800781 180.089844 211.535156 179.976562 211.378906 C 179.859375 211.21875 179.695312 211.023438 179.613281 210.949219 C 179.519531 210.875 179.277344 210.632812 179.066406 210.417969 C 178.863281 210.214844 178.636719 210.027344 178.5625 210.011719 C 178.488281 210 178.417969 209.945312 178.398438 209.902344 C 178.378906 209.851562 178.082031 209.640625 177.734375 209.429688 C 177.386719 209.21875 177.042969 208.996094 176.976562 208.933594 C 176.613281 208.605469 176.101562 208.304688 175.585938 208.109375 C 175.273438 207.980469 174.980469 207.835938 174.9375 207.769531 C 174.898438 207.714844 174.730469 207.636719 174.574219 207.605469 C 174.574219 207.605469 174.570312 207.605469 174.570312 207.605469 C 174.570312 207.605469 174.570312 207.605469 174.566406 207.601562 C 174.390625 207.570312 174.21875 207.457031 174.140625 207.328125 C 174.058594 207.195312 173.886719 207.085938 173.691406 207.046875 C 173.6875 207.046875 173.6875 207.046875 173.6875 207.046875 C 173.519531 207.015625 173.390625 206.941406 173.402344 206.886719 C 173.425781 206.753906 174 206.441406 174.589844 206.234375 C 174.847656 206.148438 175.191406 205.980469 175.347656 205.875 C 175.492188 205.765625 175.664062 205.683594 175.71875 205.695312 C 175.765625 205.703125 175.960938 205.605469 176.136719 205.484375 C 176.316406 205.363281 176.507812 205.265625 176.566406 205.273438 C 176.621094 205.285156 176.894531 205.171875 177.175781 205.023438 C 177.992188 204.597656 178.636719 204.308594 178.929688 204.246094 C 179.074219 204.207031 179.292969 204.113281 179.417969 204.03125 C 179.539062 203.945312 179.824219 203.828125 180.046875 203.765625 C 180.265625 203.699219 180.578125 203.574219 180.726562 203.496094 C 180.878906 203.410156 181.109375 203.328125 181.246094 203.316406 C 181.375 203.300781 181.550781 203.246094 181.628906 203.195312 C 181.707031 203.140625 181.984375 203.058594 182.242188 203.011719 C 182.511719 202.96875 182.964844 202.839844 183.246094 202.730469 C 183.535156 202.628906 183.890625 202.496094 184.035156 202.445312 C 184.597656 202.253906 185.277344 201.878906 185.4375 201.6875 C 185.527344 201.578125 185.648438 201.496094 185.707031 201.507812 C 185.761719 201.519531 186 201.390625 186.226562 201.21875 C 186.441406 201.046875 186.660156 200.914062 186.691406 200.921875 C 186.726562 200.929688 186.9375 200.84375 187.152344 200.730469 C 187.378906 200.605469 187.683594 200.492188 187.855469 200.445312 C 188.015625 200.410156 188.296875 200.316406 188.464844 200.234375 C 188.648438 200.152344 189.027344 200.03125 189.320312 199.972656 C 189.601562 199.910156 189.851562 199.820312 189.859375 199.785156 C 189.867188 199.746094 189.992188 199.703125 190.136719 199.691406 C 190.285156 199.691406 190.746094 199.597656 191.164062 199.484375 C 191.589844 199.378906 192.222656 199.261719 192.570312 199.21875 C 192.925781 199.179688 193.308594 199.109375 193.421875 199.0625 C 193.546875 199.019531 193.820312 198.964844 194.039062 198.9375 C 194.253906 198.914062 194.578125 198.839844 194.746094 198.773438 C 194.921875 198.710938 195.328125 198.574219 195.648438 198.464844 C 195.96875 198.359375 196.265625 198.222656 196.308594 198.152344 C 196.351562 198.085938 196.445312 198.042969 196.519531 198.058594 C 196.59375 198.074219 196.867188 197.953125 197.121094 197.785156 C 197.386719 197.625 197.632812 197.496094 197.671875 197.503906 C 197.746094 197.519531 199.675781 196.476562 199.808594 196.34375 C 199.863281 196.296875 199.972656 196.292969 200.117188 196.324219 C 200.585938 196.414062 201.410156 196.84375 201.785156 197.246094 C 202.105469 197.597656 202.855469 198.679688 202.980469 198.984375 C 203.074219 199.214844 203.417969 199.445312 203.671875 199.496094 C 203.757812 199.511719 203.832031 199.507812 203.882812 199.476562 C 203.949219 199.441406 204.035156 199.4375 204.132812 199.457031 C 204.351562 199.5 204.621094 199.671875 204.753906 199.886719 C 204.84375 200.027344 204.984375 200.160156 205.046875 200.175781 C 205.113281 200.1875 205.417969 200.417969 205.714844 200.6875 C 206.011719 200.957031 206.277344 201.183594 206.289062 201.183594 C 206.304688 201.1875 206.648438 201.429688 207.046875 201.71875 C 207.445312 202.007812 207.796875 202.25 207.84375 202.257812 C 207.882812 202.265625 208.09375 202.414062 208.3125 202.589844 C 208.765625 202.957031 210.492188 203.992188 211.03125 204.222656 C 211.398438 204.378906 212.042969 204.734375 212.339844 204.957031 C 212.433594 205.023438 212.8125 205.222656 213.175781 205.398438 C 213.832031 205.707031 214.726562 206.195312 215.234375 206.535156 C 215.75 206.875 216.191406 207.136719 216.496094 207.28125 C 216.660156 207.371094 217.199219 207.636719 217.683594 207.894531 C 218.746094 208.445312 219.324219 208.703125 219.765625 208.789062 C 220.003906 208.835938 220.207031 208.832031 220.425781 208.796875 C 220.753906 208.734375 221.625 208.292969 221.648438 208.160156 C 221.671875 208.046875 223.289062 206.578125 223.78125 206.226562 C 224.015625 206.058594 224.21875 205.863281 224.230469 205.789062 C 224.246094 205.714844 224.40625 205.542969 224.574219 205.410156 C 224.945312 205.140625 225.902344 204.144531 225.929688 204.003906 C 225.9375 203.957031 226.046875 203.851562 226.175781 203.769531 C 226.308594 203.699219 226.519531 203.488281 226.664062 203.300781 C 226.804688 203.125 227.074219 202.828125 227.261719 202.652344 C 227.449219 202.476562 227.613281 202.285156 227.621094 202.238281 C 227.632812 202.179688 227.730469 202.066406 227.855469 201.980469 C 227.96875 201.886719 228.261719 201.574219 228.503906 201.273438 C 228.746094 200.972656 229.035156 200.609375 229.148438 200.476562 C 229.261719 200.335938 229.445312 200.089844 229.5625 199.925781 C 229.683594 199.765625 229.914062 199.460938 230.089844 199.253906 C 230.253906 199.042969 230.410156 198.800781 230.429688 198.699219 C 230.445312 198.605469 230.691406 198.226562 230.976562 197.855469 C 231.261719 197.484375 231.507812 197.097656 231.527344 197.003906 C 231.546875 196.898438 231.703125 196.628906 231.886719 196.382812 C 232.066406 196.148438 232.222656 195.898438 232.238281 195.820312 C 232.265625 195.664062 232.683594 194.910156 232.886719 194.660156 C 233.050781 194.449219 233.222656 194.113281 233.894531 192.722656 C 234.101562 192.308594 234.304688 191.941406 234.355469 191.890625 C 234.410156 191.851562 234.476562 191.710938 234.503906 191.570312 C 234.527344 191.429688 234.753906 191.105469 235.007812 190.84375 C 235.441406 190.394531 236.003906 189.785156 236.34375 189.378906 C 236.429688 189.289062 236.601562 189.144531 236.730469 189.074219 C 237.042969 188.910156 237.992188 187.988281 238.023438 187.832031 C 238.039062 187.757812 238.277344 187.414062 238.558594 187.070312 C 238.835938 186.71875 239.082031 186.339844 239.105469 186.21875 C 239.128906 186.105469 239.296875 185.789062 239.484375 185.515625 C 239.839844 185.011719 240.296875 183.804688 240.273438 183.449219 C 240.273438 183.316406 240.449219 182.992188 240.769531 182.578125 C 241.054688 182.207031 241.300781 181.828125 241.320312 181.734375 C 241.339844 181.632812 241.5 181.351562 241.671875 181.113281 C 242.230469 180.320312 242.613281 179.234375 242.464844 178.789062 C 242.414062 178.621094 242.140625 178.460938 241.867188 178.410156 C 241.753906 178.386719 241.644531 178.382812 241.550781 178.402344 C 241.28125 178.445312 241.007812 178.808594 240.597656 179.699219 C 240.445312 180.027344 240.253906 180.332031 240.164062 180.382812 C 240.082031 180.421875 240.007812 180.503906 239.996094 180.550781 C 239.988281 180.597656 239.902344 180.6875 239.816406 180.75 C 239.722656 180.820312 239.628906 180.957031 239.609375 181.066406 C 239.578125 181.179688 239.484375 181.363281 239.394531 181.472656 L 239.230469 181.671875 L 239.152344 181.4375 C 239.074219 181.1875 239.125 181.0625 239.679688 180.046875 C 239.8125 179.800781 239.984375 179.300781 240.074219 178.941406 C 240.152344 178.570312 240.257812 178.222656 240.308594 178.171875 C 240.429688 178.03125 240.894531 176.417969 240.882812 176.125 C 240.878906 175.835938 240.539062 175.507812 240.167969 175.433594 C 240.164062 175.433594 240.164062 175.433594 240.164062 175.433594 C 240.15625 175.433594 240.148438 175.433594 240.140625 175.429688 C 239.941406 175.390625 239.945312 175.375 240.121094 175.15625 C 240.375 174.828125 240.402344 174.53125 240.191406 174.230469 C 240.070312 174.046875 239.808594 173.910156 239.539062 173.855469 C 239.367188 173.824219 239.191406 173.824219 239.050781 173.867188 C 238.792969 173.945312 238.210938 174.769531 237.90625 175.488281 C 237.777344 175.8125 237.519531 176.253906 237.34375 176.472656 C 237.164062 176.699219 236.992188 176.988281 236.964844 177.125 C 236.933594 177.25 236.914062 177.308594 236.910156 177.308594 C 236.902344 177.304688 236.902344 177.246094 236.90625 177.132812 C 236.902344 177.007812 237.011719 176.679688 237.140625 176.40625 C 238.039062 174.589844 238.054688 174.066406 237.230469 173.90625 C 237.230469 173.90625 237.226562 173.90625 237.222656 173.90625 C 236.457031 173.757812 236.25 173.929688 235.703125 175.164062 C 235.585938 175.429688 235.363281 175.882812 235.210938 176.171875 C 235.050781 176.449219 234.878906 176.960938 234.8125 177.304688 C 234.730469 177.6875 234.582031 178.09375 234.398438 178.398438 C 234.234375 178.65625 233.960938 179.117188 233.789062 179.414062 C 233.605469 179.707031 233.316406 180.066406 233.132812 180.214844 C 232.949219 180.367188 232.75 180.539062 232.675781 180.621094 C 232.621094 180.683594 232.589844 180.714844 232.535156 180.703125 C 232.480469 180.691406 232.402344 180.636719 232.257812 180.523438 C 231.882812 180.210938 231.378906 179.5625 231.40625 179.414062 C 231.441406 179.246094 230.945312 178.742188 230.492188 178.480469 C 230.21875 178.328125 229.78125 178.195312 229.15625 178.070312 C 229.136719 178.066406 229.121094 178.066406 229.101562 178.0625 C 227.980469 177.847656 227.796875 177.898438 227.738281 178.457031 C 227.707031 178.78125 227.726562 178.816406 228.140625 179.039062 C 228.652344 179.300781 228.941406 179.597656 229.5 180.429688 C 230.15625 181.398438 230.265625 181.632812 230.335938 182.238281 C 230.371094 182.554688 230.472656 182.980469 230.5625 183.179688 C 230.640625 183.378906 230.695312 183.632812 230.675781 183.734375 C 230.601562 184.125 230.738281 185.382812 230.890625 185.703125 C 231.023438 185.96875 231.023438 186.132812 230.910156 186.671875 C 230.839844 187.027344 230.722656 187.351562 230.652344 187.398438 C 230.597656 187.4375 230.53125 187.53125 230.519531 187.605469 C 230.503906 187.679688 230.410156 187.855469 230.308594 188 C 229.96875 188.496094 229.667969 189.011719 229.640625 189.148438 C 229.625 189.234375 229.480469 189.429688 229.332031 189.605469 C 229.175781 189.769531 228.992188 190.023438 228.921875 190.175781 C 228.855469 190.316406 228.726562 190.496094 228.648438 190.558594 C 228.476562 190.6875 227.746094 191.574219 227.160156 192.355469 C 226.953125 192.625 226.667969 192.964844 226.515625 193.101562 C 226.375 193.230469 226.152344 193.476562 226.035156 193.636719 C 225.917969 193.800781 225.710938 194.023438 225.5625 194.128906 C 225.425781 194.238281 225.246094 194.417969 225.164062 194.535156 C 225.085938 194.65625 224.144531 195.378906 223.085938 196.144531 C 222.03125 196.910156 221.15625 197.574219 221.152344 197.613281 C 221.144531 197.648438 220.949219 197.804688 220.726562 197.957031 C 220.496094 198.105469 220.257812 198.273438 220.191406 198.320312 C 219.523438 198.839844 218.890625 199.046875 218.3125 198.9375 C 218.304688 198.933594 218.300781 198.933594 218.292969 198.933594 C 217.90625 198.859375 217.765625 198.777344 217.46875 198.4375 C 217.269531 198.214844 216.96875 197.925781 216.78125 197.78125 C 216.605469 197.640625 216.34375 197.339844 216.203125 197.109375 C 215.847656 196.539062 215.402344 196.039062 214.859375 195.59375 C 214.605469 195.390625 214.320312 195.164062 214.230469 195.085938 C 213.6875 194.636719 212.84375 194.027344 212.59375 193.933594 C 212.394531 193.847656 212.308594 193.742188 212.316406 193.609375 C 212.316406 193.492188 212.265625 193.367188 212.195312 193.316406 C 212.128906 193.261719 211.953125 193.121094 211.800781 193.007812 C 211.660156 192.890625 211.464844 192.789062 211.363281 192.769531 L 211.363281 192.765625 C 211.269531 192.75 211.144531 192.6875 211.082031 192.625 C 210.898438 192.457031 211.421875 192.003906 211.730469 192.0625 C 212.253906 192.164062 212.75 192.035156 212.960938 191.746094 C 213.078125 191.585938 213.234375 191.480469 213.328125 191.5 C 213.421875 191.515625 213.5625 191.484375 213.640625 191.433594 C 213.71875 191.378906 213.867188 191.320312 213.957031 191.300781 C 214.046875 191.289062 214.261719 191.078125 214.433594 190.839844 C 214.65625 190.523438 214.730469 190.4375 214.863281 190.464844 C 214.90625 190.472656 214.949219 190.488281 215.007812 190.511719 C 215.421875 190.675781 215.742188 190.78125 215.992188 190.828125 C 216.503906 190.929688 216.726562 190.789062 216.871094 190.394531 C 216.945312 190.195312 217.195312 189.597656 217.421875 189.066406 C 217.679688 188.480469 217.894531 187.8125 217.988281 187.328125 C 218.15625 186.460938 218.144531 186.46875 218.972656 186.382812 C 219.378906 186.335938 219.574219 186.128906 219.671875 185.617188 C 219.710938 185.449219 219.8125 185.226562 219.914062 185.113281 C 220.011719 184.996094 220.105469 184.808594 220.136719 184.691406 C 220.160156 184.578125 220.222656 184.492188 220.269531 184.503906 C 220.328125 184.511719 220.375 184.464844 220.386719 184.398438 C 220.433594 184.164062 220.707031 183.683594 220.777344 183.699219 C 220.78125 183.699219 220.789062 183.703125 220.789062 183.710938 C 220.816406 183.773438 221.261719 183.917969 221.789062 184.046875 C 222.320312 184.167969 222.789062 184.335938 222.835938 184.402344 C 222.886719 184.476562 223.015625 184.53125 223.175781 184.5625 C 223.589844 184.640625 224.222656 184.582031 224.261719 184.386719 C 224.28125 184.292969 224.34375 184.214844 224.390625 184.226562 C 224.445312 184.234375 224.5 184.148438 224.523438 184.039062 C 224.542969 183.925781 224.648438 183.773438 224.753906 183.695312 C 224.976562 183.523438 225.277344 182.519531 225.160156 182.3125 C 225.109375 182.222656 225.132812 182.054688 225.234375 181.824219 C 225.320312 181.625 225.429688 181.316406 225.464844 181.140625 C 225.523438 180.824219 225.410156 179.183594 225.304688 178.882812 C 225.28125 178.800781 225.207031 178.574219 225.15625 178.390625 C 225.101562 178.214844 225 178.050781 224.933594 178.039062 C 224.859375 178.023438 224.757812 177.847656 224.707031 177.65625 C 224.617188 177.308594 223.886719 176.53125 223.214844 176.054688 C 223.050781 175.9375 222.964844 175.773438 222.945312 175.488281 C 222.929688 175.265625 222.847656 174.9375 222.761719 174.769531 C 222.679688 174.585938 222.605469 174.371094 222.585938 174.269531 C 222.570312 174.160156 222.460938 174.082031 222.25 174.039062 C 222.246094 174.039062 222.246094 174.039062 222.242188 174.039062 C 222.242188 174.039062 222.238281 174.039062 222.234375 174.039062 C 221.773438 173.945312 221.40625 173.703125 221.339844 173.441406 C 221.285156 173.191406 220.976562 173.023438 220.339844 172.902344 C 220.328125 172.898438 220.320312 172.898438 220.3125 172.894531 C 220.3125 172.894531 220.308594 172.894531 220.304688 172.894531 C 220.050781 172.84375 219.882812 172.753906 219.796875 172.613281 C 219.730469 172.503906 219.527344 172.308594 219.339844 172.175781 C 219.125 172.03125 219.007812 171.871094 219.027344 171.769531 C 219.085938 171.460938 218.757812 171.117188 217.792969 170.488281 C 217.664062 170.40625 217.371094 170.300781 217.148438 170.257812 C 217.144531 170.257812 217.144531 170.257812 217.140625 170.257812 C 217.140625 170.257812 217.136719 170.253906 217.136719 170.253906 C 216.90625 170.210938 216.308594 170.027344 215.816406 169.847656 C 215.382812 169.691406 214.964844 169.574219 214.554688 169.492188 C 214.378906 169.460938 214.207031 169.429688 214.03125 169.410156 C 211.507812 169.089844 211.414062 169.082031 211.390625 169.203125 C 211.375 169.289062 211.171875 169.316406 210.820312 169.289062 C 210.515625 169.261719 210.109375 169.269531 209.917969 169.308594 C 209.726562 169.351562 209.386719 169.394531 209.171875 169.417969 C 208.558594 169.484375 207.941406 169.675781 207.511719 169.945312 C 207.300781 170.078125 206.945312 170.230469 206.71875 170.296875 C 206.503906 170.359375 206.238281 170.523438 206.136719 170.648438 C 205.894531 170.949219 205.308594 171.390625 205.023438 171.472656 C 204.910156 171.496094 204.722656 171.625 204.621094 171.742188 C 204.511719 171.855469 204.269531 172.121094 204.066406 172.3125 C 203.777344 172.605469 203.683594 172.792969 203.550781 173.339844 L 203.386719 174.003906 L 202.96875 174.117188 C 202.761719 174.175781 202.648438 174.199219 202.585938 174.1875 C 202.53125 174.175781 202.507812 174.144531 202.488281 174.082031 C 202.46875 174 202.332031 173.839844 202.199219 173.738281 C 202.054688 173.621094 201.914062 173.394531 201.871094 173.210938 C 201.777344 172.796875 200.859375 171.378906 200.503906 171.101562 C 200.351562 170.984375 200.234375 170.855469 200.242188 170.808594 C 200.25 170.761719 200.113281 170.617188 199.941406 170.5 C 199.765625 170.367188 199.605469 170.230469 199.585938 170.1875 C 199.519531 170.03125 198.667969 169.433594 198.453125 169.390625 L 198.449219 169.390625 C 198.328125 169.367188 198.082031 169.203125 197.914062 169.015625 C 197.476562 168.574219 197.234375 168.414062 196.773438 168.246094 C 196.515625 168.167969 196.296875 168.011719 196.183594 167.84375 C 196.070312 167.675781 195.890625 167.546875 195.734375 167.515625 C 195.734375 167.515625 195.734375 167.515625 195.730469 167.515625 C 195.5625 167.484375 195.445312 167.394531 195.402344 167.257812 C 195.367188 167.144531 195.144531 166.898438 194.898438 166.71875 C 194.652344 166.527344 194.355469 166.253906 194.21875 166.113281 C 194.089844 165.972656 193.800781 165.761719 193.582031 165.644531 C 193.363281 165.535156 193.007812 165.253906 192.78125 165.035156 C 192.285156 164.535156 192.019531 164.367188 190.882812 163.828125 C 190.394531 163.589844 189.941406 163.339844 189.878906 163.261719 C 189.816406 163.179688 189.53125 162.953125 189.25 162.742188 C 188.96875 162.542969 188.683594 162.316406 188.621094 162.234375 C 188.558594 162.164062 188.332031 161.984375 188.121094 161.859375 C 187.90625 161.722656 187.636719 161.515625 187.515625 161.386719 C 187.394531 161.265625 187.234375 161.148438 187.167969 161.132812 C 187.035156 161.109375 186.269531 160.566406 185.714844 160.121094 C 185.601562 160.023438 185.433594 159.933594 185.359375 159.917969 C 185.28125 159.902344 184.960938 159.667969 184.65625 159.394531 C 184.339844 159.121094 184.015625 158.886719 183.921875 158.867188 C 183.839844 158.851562 183.738281 158.773438 183.710938 158.703125 C 183.691406 158.621094 183.457031 158.363281 183.214844 158.125 C 182.96875 157.882812 182.679688 157.585938 182.574219 157.476562 C 182.421875 157.3125 182.113281 157.207031 181.261719 156.996094 C 180.644531 156.835938 179.835938 156.605469 179.464844 156.476562 C 178.265625 156.066406 175.222656 155.359375 172.8125 154.886719 C 171.386719 154.609375 170.183594 154.410156 169.707031 154.40625 C 168.933594 154.394531 167.777344 154.320312 166.683594 154.214844 C 166.160156 154.164062 165.605469 154.144531 165.445312 154.171875 C 165.285156 154.191406 164.835938 154.152344 164.445312 154.085938 C 164.050781 154.011719 163.519531 153.957031 163.25 153.957031 C 162.988281 153.953125 162.441406 153.9375 162.046875 153.910156 C 161.65625 153.882812 161.070312 153.859375 160.753906 153.855469 C 160.507812 153.859375 160.109375 153.8125 159.753906 153.742188 C 159.640625 153.722656 159.53125 153.695312 159.433594 153.671875 C 158.675781 153.476562 158.246094 153.25 157.894531 152.855469 C 157.585938 152.503906 156.308594 151.792969 155.316406 151.410156 C 154.820312 151.21875 154.320312 151 154.199219 150.925781 C 153.867188 150.730469 152.671875 150.179688 152.472656 150.140625 L 152.46875 150.140625 C 152.28125 150.105469 151.953125 149.75 151.355469 148.929688 C 151.132812 148.628906 150.824219 148.21875 150.660156 148.023438 C 150.496094 147.816406 150.085938 147.273438 149.75 146.804688 C 149.363281 146.257812 149.042969 145.90625 148.871094 145.832031 C 148.707031 145.769531 148.574219 145.722656 148.457031 145.699219 Z M 148.457031 145.699219 " fill-opacity="1" fill-rule="nonzero"/></g></g></g><g fill="#bacf00" fill-opacity="1"><g transform="translate(166.468909, 309.773212)"><g><path d="M 21.484375 -33 L 21.484375 -26.40625 L 9.921875 -26.40625 L 9.921875 -19.84375 L 20.59375 -19.84375 L 20.59375 -13.234375 L 9.921875 -13.234375 L 9.921875 0 L 2.40625 0 L 2.40625 -33 Z M 21.484375 -33 "/></g></g></g><g fill="#bacf00" fill-opacity="1"><g transform="translate(189.146657, 309.773212)"><g><path d="M 3.078125 -31.953125 C 3.898438 -32.785156 4.882812 -33.203125 6.03125 -33.203125 C 7.1875 -33.203125 8.175781 -32.785156 9 -31.953125 C 9.820312 -31.128906 10.234375 -30.144531 10.234375 -29 C 10.234375 -27.851562 9.820312 -26.863281 9 -26.03125 C 8.175781 -25.207031 7.1875 -24.796875 6.03125 -24.796875 C 4.882812 -24.796875 3.898438 -25.207031 3.078125 -26.03125 C 2.253906 -26.863281 1.84375 -27.851562 1.84375 -29 C 1.84375 -30.144531 2.253906 -31.128906 3.078125 -31.953125 Z M 2.40625 -20.515625 L 2.40625 0 L 9.484375 0 L 9.484375 -20.515625 Z M 2.40625 -20.515625 "/></g></g></g><g fill="#bacf00" fill-opacity="1"><g transform="translate(201.22546, 309.773212)"><g><path d="M 3.59375 -20.515625 L 3.59375 -28.15625 L 10.6875 -28.15625 L 10.6875 -20.515625 L 15 -20.515625 L 15 -15.125 L 10.6875 -15.125 L 10.6875 -8.59375 C 10.6875 -6.707031 11.21875 -5.765625 12.28125 -5.765625 C 12.550781 -5.765625 12.832031 -5.816406 13.125 -5.921875 C 13.414062 -6.023438 13.640625 -6.128906 13.796875 -6.234375 L 14.046875 -6.40625 L 15.796875 -0.6875 C 14.273438 0.164062 12.539062 0.59375 10.59375 0.59375 C 9.257812 0.59375 8.113281 0.363281 7.15625 -0.09375 C 6.195312 -0.5625 5.46875 -1.1875 4.96875 -1.96875 C 4.476562 -2.757812 4.125 -3.585938 3.90625 -4.453125 C 3.695312 -5.328125 3.59375 -6.253906 3.59375 -7.234375 L 3.59375 -15.125 L 0.640625 -15.125 L 0.640625 -20.515625 Z M 3.59375 -20.515625 "/></g></g></g></svg>